<svg width="20" height="20" viewBox="0 0 20 20" fill="none" xmlns="http://www.w3.org/2000/svg">
<path fill-rule="evenodd" clip-rule="evenodd" d="M9.95248 0C11.283 0.0473476 12.661 0.0473476 13.9916 0.094689C15.1795 0.14203 16.2724 0.331406 17.3178 0.94687C18.6484 1.75171 19.4562 2.9353 19.7413 4.45029C19.8838 5.34982 19.9314 6.29668 19.9789 7.19622C20.0264 9.18464 19.9789 11.1731 19.9789 13.1615C19.9789 14.2031 19.9314 15.2446 19.5987 16.2388C18.9335 18.1799 17.5554 19.3635 15.5597 19.7422C14.6568 19.9316 13.7064 19.9316 12.8036 19.979C10.8078 20.0263 8.85956 19.979 6.86378 19.979C5.81837 19.979 4.77297 19.9316 3.77508 19.6002C1.82682 18.9374 0.63886 17.5644 0.25871 15.576C0.0686398 14.6765 0.0686398 13.7296 0.0211206 12.8301C-0.0264007 10.8417 0.0211206 8.85324 0.0211206 6.86481C0.0211206 5.82326 0.0686398 4.7817 0.401268 3.78748C1.06653 1.84639 2.44456 0.662814 4.44033 0.284064C5.34319 0.0946952 6.29356 0.0946952 7.19641 0.0473476C8.09926 0 9.00211 0 9.95248 0ZM18.1738 9.80023C18.1263 9.80023 18.1738 9.80023 18.1738 9.80023C18.1263 8.99539 18.1263 8.23789 18.1263 7.43305C18.1263 6.67556 18.0788 5.91806 17.9837 5.16056C17.7937 3.45619 16.7958 2.31995 15.1326 1.98855C14.2773 1.79918 13.3269 1.79918 12.4716 1.79918C10.7609 1.75183 9.09779 1.75183 7.38712 1.79918C6.53179 1.79918 5.67646 1.84651 4.86864 1.98855C3.44309 2.22526 2.4452 3.0301 2.01754 4.45041C1.87498 4.92384 1.82746 5.39728 1.77994 5.87071C1.73242 7.66977 1.73242 9.46882 1.73242 11.2679C1.73242 12.4041 1.77994 13.5877 1.87498 14.724C2.01754 16.4283 3.06294 17.6119 4.77361 17.896C5.62894 18.038 6.53179 18.0853 7.43464 18.0853C9.09779 18.1327 10.7609 18.0853 12.4716 18.0853C13.2319 18.0853 13.9922 18.038 14.7525 17.9433C15.4653 17.896 16.1305 17.6592 16.7007 17.1858C17.6511 16.4283 17.9837 15.4341 18.0313 14.2979C18.1263 12.8775 18.1263 11.3626 18.1738 9.80023Z" fill="#535353"/>
<path fill-rule="evenodd" clip-rule="evenodd" d="M15.0838 9.98941C15.0838 12.83 12.8029 15.1025 9.95183 15.1025C7.10071 15.1025 4.81982 12.83 4.81982 9.94208C4.81982 7.14881 7.14823 4.87634 9.99934 4.87634C12.8029 4.87634 15.0838 7.14881 15.0838 9.98941ZM9.95239 13.3033C11.7581 13.3033 13.2787 11.7883 13.2787 9.98928C13.2787 8.19024 11.7581 6.67525 9.95239 6.67525C8.09916 6.67525 6.62608 8.19024 6.62608 9.98928C6.57857 11.7883 8.09916 13.3033 9.95239 13.3033Z" fill="#535353"/>
<path d="M16.4624 4.63916C16.4624 5.30198 15.9399 5.8701 15.2748 5.8701C14.6098 5.8701 14.0397 5.30198 14.0872 4.63916C14.0872 3.97635 14.6098 3.45557 15.2748 3.45557C15.9399 3.45557 16.4624 3.97635 16.4624 4.63916Z" fill="#535353"/>
</svg>
