<svg width="20" height="20" viewBox="0 0 20 20" fill="none" xmlns="http://www.w3.org/2000/svg">
<path fill-rule="evenodd" clip-rule="evenodd" d="M20 12.2599V20H15.6874V12.7684C15.6874 10.9605 15.0944 9.71752 13.5311 9.71752C12.3452 9.71752 11.6444 10.565 11.3209 11.3559C11.2131 11.6384 11.1592 12.0339 11.1592 12.4294V20H6.84666C6.84666 20 6.90057 7.74012 6.84666 6.49719H11.1592V8.41809C11.1592 8.41809 11.1592 8.47458 11.1053 8.47458H11.1592V8.41809C11.7522 7.51414 12.7225 6.1582 15.0405 6.1582C17.8437 6.1582 20 8.1356 20 12.2599ZM2.42582 0C0.970327 0 0 1.01695 0 2.31639C0 3.61581 0.916422 4.63278 2.37191 4.63278H2.42582C3.93522 4.63278 4.85164 3.61582 4.85164 2.31639C4.79774 1.01695 3.88131 0 2.42582 0ZM0.216039 20H4.47471V6.49719H0.216039V20Z" fill="#535353"/>
</svg>
