<svg width="173" height="400" viewBox="0 0 173 400" fill="none" xmlns="http://www.w3.org/2000/svg">
<g opacity="0.5">
<rect y="207.423" width="2.83607" height="2.84073" fill="black"/>
<rect x="18.9067" y="207.423" width="2.83607" height="2.84073" fill="black"/>
<rect x="37.8145" y="207.423" width="2.83607" height="2.84073" fill="black"/>
<rect x="56.7217" y="207.423" width="2.83607" height="2.84073" fill="black"/>
<rect x="75.6284" y="207.423" width="2.83607" height="2.84073" fill="black"/>
<rect x="94.5361" y="207.423" width="2.83607" height="2.84073" fill="black"/>
<rect x="113.443" y="207.423" width="2.83607" height="2.84073" fill="black"/>
<rect x="132.351" y="207.423" width="2.83607" height="2.84073" fill="black"/>
<rect x="151.258" y="207.423" width="2.83607" height="2.84073" fill="black"/>
<rect x="170.164" y="207.423" width="2.83607" height="2.84073" fill="black"/>
<rect y="226.361" width="2.83607" height="2.84073" fill="black"/>
<rect x="18.9067" y="226.361" width="2.83607" height="2.84073" fill="black"/>
<rect x="37.8145" y="226.361" width="2.83607" height="2.84073" fill="black"/>
<rect x="56.7217" y="226.361" width="2.83607" height="2.84073" fill="black"/>
<rect x="75.6284" y="226.361" width="2.83607" height="2.84073" fill="black"/>
<rect x="94.5361" y="226.361" width="2.83607" height="2.84073" fill="black"/>
<rect x="113.443" y="226.361" width="2.83607" height="2.84073" fill="black"/>
<rect x="132.351" y="226.361" width="2.83607" height="2.84073" fill="black"/>
<rect x="151.258" y="226.361" width="2.83607" height="2.84073" fill="black"/>
<rect x="170.164" y="226.361" width="2.83607" height="2.84073" fill="black"/>
<rect y="245.3" width="2.83607" height="2.84073" fill="black"/>
<rect x="18.9067" y="245.3" width="2.83607" height="2.84073" fill="black"/>
<rect x="37.8145" y="245.3" width="2.83607" height="2.84073" fill="black"/>
<rect x="56.7217" y="245.3" width="2.83607" height="2.84073" fill="black"/>
<rect x="75.6284" y="245.3" width="2.83607" height="2.84073" fill="black"/>
<rect x="94.5361" y="245.3" width="2.83607" height="2.84073" fill="black"/>
<rect x="113.443" y="245.3" width="2.83607" height="2.84073" fill="black"/>
<rect x="132.351" y="245.3" width="2.83607" height="2.84073" fill="black"/>
<rect x="151.258" y="245.3" width="2.83607" height="2.84073" fill="black"/>
<rect x="170.164" y="245.3" width="2.83607" height="2.84073" fill="black"/>
<rect y="264.238" width="2.83607" height="2.84073" fill="black"/>
<rect x="18.9067" y="264.238" width="2.83607" height="2.84073" fill="black"/>
<rect x="37.8145" y="264.238" width="2.83607" height="2.84073" fill="black"/>
<rect x="56.7217" y="264.238" width="2.83607" height="2.84073" fill="black"/>
<rect x="75.6284" y="264.238" width="2.83607" height="2.84073" fill="black"/>
<rect x="94.5361" y="264.238" width="2.83607" height="2.84073" fill="black"/>
<rect x="113.443" y="264.238" width="2.83607" height="2.84073" fill="black"/>
<rect x="132.351" y="264.238" width="2.83607" height="2.84073" fill="black"/>
<rect x="151.258" y="264.238" width="2.83607" height="2.84073" fill="black"/>
<rect x="170.164" y="264.238" width="2.83607" height="2.84073" fill="black"/>
<rect y="283.176" width="2.83607" height="2.84073" fill="black"/>
<rect x="18.9067" y="283.176" width="2.83607" height="2.84073" fill="black"/>
<rect x="37.8145" y="283.176" width="2.83607" height="2.84073" fill="black"/>
<rect x="56.7217" y="283.176" width="2.83607" height="2.84073" fill="black"/>
<rect x="75.6284" y="283.176" width="2.83607" height="2.84073" fill="black"/>
<rect x="94.5361" y="283.176" width="2.83607" height="2.84073" fill="black"/>
<rect x="113.443" y="283.176" width="2.83607" height="2.84073" fill="black"/>
<rect x="132.351" y="283.176" width="2.83607" height="2.84073" fill="black"/>
<rect x="151.258" y="283.176" width="2.83607" height="2.84073" fill="black"/>
<rect x="170.164" y="283.176" width="2.83607" height="2.84073" fill="black"/>
<rect y="302.115" width="2.83607" height="2.84073" fill="black"/>
<rect x="18.9067" y="302.115" width="2.83607" height="2.84073" fill="black"/>
<rect x="37.8145" y="302.115" width="2.83607" height="2.84073" fill="black"/>
<rect x="56.7217" y="302.115" width="2.83607" height="2.84073" fill="black"/>
<rect x="75.6284" y="302.115" width="2.83607" height="2.84073" fill="black"/>
<rect x="94.5361" y="302.115" width="2.83607" height="2.84073" fill="black"/>
<rect x="113.443" y="302.115" width="2.83607" height="2.84073" fill="black"/>
<rect x="132.351" y="302.115" width="2.83607" height="2.84073" fill="black"/>
<rect x="151.258" y="302.115" width="2.83607" height="2.84073" fill="black"/>
<rect x="170.164" y="302.115" width="2.83607" height="2.84073" fill="black"/>
<rect y="321.052" width="2.83607" height="2.84073" fill="black"/>
<rect x="18.9067" y="321.052" width="2.83607" height="2.84073" fill="black"/>
<rect x="37.8145" y="321.052" width="2.83607" height="2.84073" fill="black"/>
<rect x="56.7217" y="321.052" width="2.83607" height="2.84073" fill="black"/>
<rect x="75.6284" y="321.052" width="2.83607" height="2.84073" fill="black"/>
<rect x="94.5361" y="321.052" width="2.83607" height="2.84073" fill="black"/>
<rect x="113.443" y="321.052" width="2.83607" height="2.84073" fill="black"/>
<rect x="132.351" y="321.052" width="2.83607" height="2.84073" fill="black"/>
<rect x="151.258" y="321.052" width="2.83607" height="2.84073" fill="black"/>
<rect x="170.164" y="321.052" width="2.83607" height="2.84073" fill="black"/>
<rect y="339.99" width="2.83607" height="2.84073" fill="black"/>
<rect x="18.9067" y="339.991" width="2.83607" height="2.84073" fill="black"/>
<rect x="37.8145" y="339.991" width="2.83607" height="2.84073" fill="black"/>
<rect x="56.7217" y="339.991" width="2.83607" height="2.84073" fill="black"/>
<rect x="75.6284" y="339.991" width="2.83607" height="2.84073" fill="black"/>
<rect x="94.5361" y="339.991" width="2.83607" height="2.84073" fill="black"/>
<rect x="113.443" y="339.991" width="2.83607" height="2.84073" fill="black"/>
<rect x="132.351" y="339.991" width="2.83607" height="2.84073" fill="black"/>
<rect x="151.258" y="339.991" width="2.83607" height="2.84073" fill="black"/>
<rect x="170.164" y="339.991" width="2.83607" height="2.84073" fill="black"/>
<rect y="358.929" width="2.83607" height="2.84073" fill="black"/>
<rect x="18.9067" y="358.929" width="2.83607" height="2.84073" fill="black"/>
<rect x="37.8145" y="358.929" width="2.83607" height="2.84073" fill="black"/>
<rect x="56.7217" y="358.929" width="2.83607" height="2.84073" fill="black"/>
<rect x="75.6284" y="358.929" width="2.83607" height="2.84073" fill="black"/>
<rect x="94.5361" y="358.929" width="2.83607" height="2.84073" fill="black"/>
<rect x="113.443" y="358.929" width="2.83607" height="2.84073" fill="black"/>
<rect x="132.351" y="358.929" width="2.83607" height="2.84073" fill="black"/>
<rect x="151.258" y="358.929" width="2.83607" height="2.84073" fill="black"/>
<rect x="170.164" y="358.929" width="2.83607" height="2.84073" fill="black"/>
<rect y="377.866" width="2.83607" height="2.84073" fill="black"/>
<rect x="18.9067" y="377.866" width="2.83607" height="2.84073" fill="black"/>
<rect x="37.8145" y="377.866" width="2.83607" height="2.84073" fill="black"/>
<rect x="56.7217" y="377.866" width="2.83607" height="2.84073" fill="black"/>
<rect x="75.6284" y="377.866" width="2.83607" height="2.84073" fill="black"/>
<rect x="94.5361" y="377.866" width="2.83607" height="2.84073" fill="black"/>
<rect x="113.443" y="377.866" width="2.83607" height="2.84073" fill="black"/>
<rect x="132.351" y="377.866" width="2.83607" height="2.84073" fill="black"/>
<rect x="151.258" y="377.866" width="2.83607" height="2.84073" fill="black"/>
<rect x="170.164" y="377.866" width="2.83607" height="2.84073" fill="black"/>
<rect y="396.805" width="2.83607" height="2.84073" fill="black"/>
<rect x="18.9067" y="396.806" width="2.83607" height="2.84073" fill="black"/>
<rect x="37.8145" y="396.806" width="2.83607" height="2.84073" fill="black"/>
<rect x="56.7217" y="396.806" width="2.83607" height="2.84073" fill="black"/>
<rect x="75.6284" y="396.806" width="2.83607" height="2.84073" fill="black"/>
<rect x="94.5361" y="396.806" width="2.83607" height="2.84073" fill="black"/>
<rect x="113.443" y="396.806" width="2.83607" height="2.84073" fill="black"/>
<rect x="132.351" y="396.806" width="2.83607" height="2.84073" fill="black"/>
<rect x="151.258" y="396.806" width="2.83607" height="2.84073" fill="black"/>
<rect x="170.164" y="396.806" width="2.83607" height="2.84073" fill="black"/>
</g>
<g opacity="0.5">
<rect width="3" height="3" fill="black"/>
<rect x="19" width="3" height="3" fill="black"/>
<rect x="38" width="3" height="3" fill="black"/>
<rect x="57" width="3" height="3" fill="black"/>
<rect x="76" width="3" height="3" fill="black"/>
<rect x="95" width="3" height="3" fill="black"/>
<rect x="113" width="3" height="3" fill="black"/>
<rect x="132" width="3" height="3" fill="black"/>
<rect x="151" width="3" height="3" fill="black"/>
<rect x="170" width="3" height="3" fill="black"/>
<rect y="19" width="3" height="3" fill="black"/>
<rect x="19" y="19" width="3" height="3" fill="black"/>
<rect x="38" y="19" width="3" height="3" fill="black"/>
<rect x="57" y="19" width="3" height="3" fill="black"/>
<rect x="76" y="19" width="3" height="3" fill="black"/>
<rect x="95" y="19" width="3" height="3" fill="black"/>
<rect x="113" y="19" width="3" height="3" fill="black"/>
<rect x="132" y="19" width="3" height="3" fill="black"/>
<rect x="151" y="19" width="3" height="3" fill="black"/>
<rect x="170" y="19" width="3" height="3" fill="black"/>
<rect y="38" width="3" height="3" fill="black"/>
<rect x="19" y="38" width="3" height="3" fill="black"/>
<rect x="38" y="38" width="3" height="3" fill="black"/>
<rect x="57" y="38" width="3" height="3" fill="black"/>
<rect x="76" y="38" width="3" height="3" fill="black"/>
<rect x="95" y="38" width="3" height="3" fill="black"/>
<rect x="113" y="38" width="3" height="3" fill="black"/>
<rect x="132" y="38" width="3" height="3" fill="black"/>
<rect x="151" y="38" width="3" height="3" fill="black"/>
<rect x="170" y="38" width="3" height="3" fill="black"/>
<rect y="57" width="3" height="3" fill="black"/>
<rect x="19" y="57" width="3" height="3" fill="black"/>
<rect x="38" y="57" width="3" height="3" fill="black"/>
<rect x="57" y="57" width="3" height="3" fill="black"/>
<rect x="76" y="57" width="3" height="3" fill="black"/>
<rect x="95" y="57" width="3" height="3" fill="black"/>
<rect x="113" y="57" width="3" height="3" fill="black"/>
<rect x="132" y="57" width="3" height="3" fill="black"/>
<rect x="151" y="57" width="3" height="3" fill="black"/>
<rect x="170" y="57" width="3" height="3" fill="black"/>
<rect y="76" width="3" height="3" fill="black"/>
<rect x="19" y="76" width="3" height="3" fill="black"/>
<rect x="38" y="76" width="3" height="3" fill="black"/>
<rect x="57" y="76" width="3" height="3" fill="black"/>
<rect x="76" y="76" width="3" height="3" fill="black"/>
<rect x="95" y="76" width="3" height="3" fill="black"/>
<rect x="113" y="76" width="3" height="3" fill="black"/>
<rect x="132" y="76" width="3" height="3" fill="black"/>
<rect x="151" y="76" width="3" height="3" fill="black"/>
<rect x="170" y="76" width="3" height="3" fill="black"/>
<rect y="95" width="3" height="3" fill="black"/>
<rect x="19" y="95" width="3" height="3" fill="black"/>
<rect x="38" y="95" width="3" height="3" fill="black"/>
<rect x="57" y="95" width="3" height="3" fill="black"/>
<rect x="76" y="95" width="3" height="3" fill="black"/>
<rect x="95" y="95" width="3" height="3" fill="black"/>
<rect x="113" y="95" width="3" height="3" fill="black"/>
<rect x="132" y="95" width="3" height="3" fill="black"/>
<rect x="151" y="95" width="3" height="3" fill="black"/>
<rect x="170" y="95" width="3" height="3" fill="black"/>
<rect y="114" width="3" height="3" fill="black"/>
<rect x="19" y="114" width="3" height="3" fill="black"/>
<rect x="38" y="114" width="3" height="3" fill="black"/>
<rect x="57" y="114" width="3" height="3" fill="black"/>
<rect x="76" y="114" width="3" height="3" fill="black"/>
<rect x="95" y="114" width="3" height="3" fill="black"/>
<rect x="113" y="114" width="3" height="3" fill="black"/>
<rect x="132" y="114" width="3" height="3" fill="black"/>
<rect x="151" y="114" width="3" height="3" fill="black"/>
<rect x="170" y="114" width="3" height="3" fill="black"/>
<rect y="133" width="3" height="3" fill="black"/>
<rect x="19" y="133" width="3" height="3" fill="black"/>
<rect x="38" y="133" width="3" height="3" fill="black"/>
<rect x="57" y="133" width="3" height="3" fill="black"/>
<rect x="76" y="133" width="3" height="3" fill="black"/>
<rect x="95" y="133" width="3" height="3" fill="black"/>
<rect x="113" y="133" width="3" height="3" fill="black"/>
<rect x="132" y="133" width="3" height="3" fill="black"/>
<rect x="151" y="133" width="3" height="3" fill="black"/>
<rect x="170" y="133" width="3" height="3" fill="black"/>
<rect y="152" width="3" height="3" fill="black"/>
<rect x="19" y="152" width="3" height="3" fill="black"/>
<rect x="38" y="152" width="3" height="3" fill="black"/>
<rect x="57" y="152" width="3" height="3" fill="black"/>
<rect x="76" y="152" width="3" height="3" fill="black"/>
<rect x="95" y="152" width="3" height="3" fill="black"/>
<rect x="113" y="152" width="3" height="3" fill="black"/>
<rect x="132" y="152" width="3" height="3" fill="black"/>
<rect x="151" y="152" width="3" height="3" fill="black"/>
<rect x="170" y="152" width="3" height="3" fill="black"/>
<rect y="170" width="3" height="3" fill="black"/>
<rect x="19" y="170" width="3" height="3" fill="black"/>
<rect x="38" y="170" width="3" height="3" fill="black"/>
<rect x="57" y="170" width="3" height="3" fill="black"/>
<rect x="76" y="170" width="3" height="3" fill="black"/>
<rect x="95" y="170" width="3" height="3" fill="black"/>
<rect x="113" y="170" width="3" height="3" fill="black"/>
<rect x="132" y="170" width="3" height="3" fill="black"/>
<rect x="151" y="170" width="3" height="3" fill="black"/>
<rect x="170" y="170" width="3" height="3" fill="black"/>
<rect y="189" width="3" height="3" fill="black"/>
<rect x="19" y="189" width="3" height="3" fill="black"/>
<rect x="38" y="189" width="3" height="3" fill="black"/>
<rect x="57" y="189" width="3" height="3" fill="black"/>
<rect x="76" y="189" width="3" height="3" fill="black"/>
<rect x="95" y="189" width="3" height="3" fill="black"/>
<rect x="113" y="189" width="3" height="3" fill="black"/>
<rect x="132" y="189" width="3" height="3" fill="black"/>
<rect x="151" y="189" width="3" height="3" fill="black"/>
<rect x="170" y="189" width="3" height="3" fill="black"/>
</g>
</svg>
