<svg width="20" height="18" viewBox="0 0 20 18" fill="none" xmlns="http://www.w3.org/2000/svg">
<path fill-rule="evenodd" clip-rule="evenodd" d="M20 2.13295C19.2471 2.49711 18.4941 2.75723 17.6471 2.86127C18.4941 2.28902 19.1529 1.40463 19.4353 0.364162C18.6353 0.884393 17.7412 1.24855 16.8471 1.45664C16.0941 0.572251 15.0118 0 13.8353 0C11.5765 0 9.74117 2.0289 9.74117 4.52601C9.74117 4.89018 9.78823 5.25433 9.83529 5.56648C6.4 5.35838 3.38824 3.58959 1.3647 0.832373C0.988233 1.50867 0.799999 2.28902 0.799999 3.12139C0.799999 4.68209 1.50588 6.08671 2.63529 6.91907C1.97647 6.91907 1.31765 6.71099 0.752939 6.34682V6.39884C0.752939 8.58382 2.16471 10.4566 4.04706 10.8728C3.71764 10.9769 3.34118 11.0289 2.9647 11.0289C2.68235 11.0289 2.44706 10.9769 2.21177 10.9249C2.72941 12.7457 4.2353 14.0462 6.07058 14.0983C4.65882 15.2948 2.91764 16.0231 0.988233 16.0231C0.658823 16.0231 0.329414 16.0231 0 15.9711C1.8353 17.2717 3.95294 18 6.30588 18C13.8824 18 17.9765 11.0809 17.9765 5.09827C17.9765 4.89018 17.9765 4.68209 17.9765 4.52601C18.7765 3.84972 19.4823 3.01734 20 2.13295Z" fill="white"/>
</svg>
